<?xml version="1.0" encoding="UTF-8" standalone="no"?>
<!-- Created with Inkscape (http://www.inkscape.org/) -->

<svg
   width="32"
   height="32"
   viewBox="0 0 32 32"
   version="1.1"
   id="svg1"
   inkscape:version="1.4.2 (ebf0e940d0, 2025-05-08)"
   sodipodi:docname="Sort Title.svg"
   inkscape:export-filename="Triangle Right.png"
   inkscape:export-xdpi="384"
   inkscape:export-ydpi="384"
   xml:space="preserve"
   xmlns:inkscape="http://www.inkscape.org/namespaces/inkscape"
   xmlns:sodipodi="http://sodipodi.sourceforge.net/DTD/sodipodi-0.dtd"
   xmlns="http://www.w3.org/2000/svg"
   xmlns:svg="http://www.w3.org/2000/svg"><sodipodi:namedview
     id="namedview1"
     pagecolor="#505050"
     bordercolor="#eeeeee"
     borderopacity="1"
     inkscape:showpageshadow="0"
     inkscape:pageopacity="0"
     inkscape:pagecheckerboard="0"
     inkscape:deskcolor="#505050"
     inkscape:document-units="px"
     showgrid="true"
     inkscape:zoom="18.627844"
     inkscape:cx="11.139238"
     inkscape:cy="19.728531"
     inkscape:window-width="1920"
     inkscape:window-height="1080"
     inkscape:window-x="0"
     inkscape:window-y="0"
     inkscape:window-maximized="1"
     inkscape:current-layer="layer1"><inkscape:grid
       id="grid4"
       units="px"
       originx="16"
       originy="16"
       spacingx="1"
       spacingy="1"
       empcolor="#0099e5"
       empopacity="0.30196078"
       color="#0099e5"
       opacity="0.14901961"
       empspacing="12"
       enabled="true"
       visible="true"
       dotted="true" /></sodipodi:namedview><defs
     id="defs1" /><g
     inkscape:label="Layer 1"
     inkscape:groupmode="layer"
     id="layer1"><path
       id="text1"
       style="font-size:32px;font-family:Garvette;-inkscape-font-specification:Garvette;letter-spacing:0px;fill:#ffffff;stroke-width:2;stroke-linecap:round;stroke-linejoin:round;paint-order:stroke markers fill"
       d="M 12 4 C 11.5625 4 11.260417 4.1875 11.09375 4.5625 L 4.09375 18.5625 C 4.03125 18.6875 4 18.833333 4 19 C 4 19.291667 4.09375 19.53125 4.28125 19.71875 C 4.46875 19.90625 4.7083333 20 5 20 C 5.4166667 20 5.71875 19.8125 5.90625 19.4375 L 7.625 16 L 15 16 C 14.279762 16 13.421334 15.686959 12.867188 15.132812 C 12.558506 14.824131 12.324355 14.421034 12.177734 14 L 8.625 14 L 12 7.25 L 13.558594 10.367188 C 14.017821 10.12817 14.537603 10 15 10 L 15.625 10 L 12.90625 4.5625 C 12.739583 4.1875 12.4375 4 12 4 z M 16.375 16 L 17.884766 19.019531 L 19.304688 17.359375 L 18.625 16 L 16.375 16 z " /><path
       d="m 27,12 q 0.4375,0 0.71875,0.28125 Q 28,12.5625 28,13 q 0,0.375 -0.25,0.65625 L 17.1875,26 H 27 q 0.4375,0 0.71875,0.28125 Q 28,26.5625 28,27 28,27.4375 27.71875,27.71875 27.4375,28 27,28 H 15 Q 14.5625,28 14.28125,27.71875 14,27.4375 14,27 14,26.625 14.25,26.34375 L 24.8125,14 H 15 Q 14.5625,14 14.28125,13.71875 14,13.4375 14,13 14,12.5625 14.28125,12.28125 14.5625,12 15,12 Z"
       id="text2"
       style="font-size:32px;font-family:Garvette;-inkscape-font-specification:Garvette;letter-spacing:0px;fill:#ffffff;stroke-width:2;stroke-linecap:round;stroke-linejoin:round;paint-order:stroke markers fill"
       aria-label="Z" /><g
       id="text2-3"
       style="opacity:1"
       transform="translate(-0.1875)"><path
         style="font-size:32px;font-family:Garvette;-inkscape-font-specification:Garvette;letter-spacing:0px;baseline-shift:baseline;display:inline;overflow:visible;vector-effect:none;fill:#ffffff;stroke-linecap:round;stroke-linejoin:round;paint-order:stroke markers fill;enable-background:accumulate;stop-color:#000000;stop-opacity:1"
         d="m 27.1875,12 q 0.4375,0 0.71875,0.28125 Q 28.1875,12.5625 28.1875,13 q 0,0.375 -0.25,0.65625 L 17.375,26 h 9.8125 q 0.4375,0 0.71875,0.28125 Q 28.1875,26.5625 28.1875,27 q 0,0.4375 -0.28125,0.71875 Q 27.625,28 27.1875,28 h -12 Q 14.75,28 14.46875,27.71875 14.1875,27.4375 14.1875,27 q 0,-0.375 0.25,-0.65625 L 25,14 H 15.1875 Q 14.75,14 14.46875,13.71875 14.1875,13.4375 14.1875,13 q 0,-0.4375 0.28125,-0.71875 Q 14.75,12 15.1875,12 Z"
         id="path3" /></g></g></svg>
