<svg version="1.1" width="1520" height="320" viewBox="0 0 190 40" xmlns="http://www.w3.org/2000/svg">
    <defs>
        <g id="flick-outer">
            <path d="M 87 12 m 18 8 l -10 20 l 0 -10 l -10 -10 l 10 -20 l 0 10 z" />
        </g>
        <g id="flick-center">
            <path d="M 87 12 m 18 8 l -10 10 l -10 -10 l 10 -10 z" />
        </g>
        <g id="text" stroke-linecap="round" stroke-linejoin="round">
            <path d="M 27 12 m 1 8 a 1 1 0 0 0 14 0 l 0 -7" />
            <path d="M 47 12 m 0 15 l 8 -14 l 8 14 m -13.7 -4 l 11.4 0" />
            <path d="M 67 12 m 1 15 l 0 -14 l 14 14 l 0 -14" />
            <path d="M 107 12 m 0 15 l 8 -14 l 8 14 m -13.7 -4 l 11.4 0" />
            <path d="M 127 12 m 1 15 l 0 -14 l 9 0 a 1 1 0 0 1 0 10 l -9 0 m 14 4 l -4.1 -4.1" />
            <path d="M 147 12 m 14 4 q -2 -3 -6 -3 a 7 7 0 1 0 7 7 m -7 0 l 7 0 l 0 7" />
        </g>
    </defs>

    <mask id="main-mask">
        <rect x="0" y="16" width="4" height="8" fill="white" />
        <rect x="8" y="16" width="174" height="8" fill="white" />
        <rect x="186" y="16" width="4" height="8" fill="white" />
        <rect x="38" y="16" width="114" height="8" fill="black" />

        <g stroke="black" fill="transparent" stroke-width="8">
            <use href="#flick-center" />
        </g>
        <g stroke="black" fill="transparent" stroke-width="10">
            <use href="#text" />
        </g>

        <g fill="white">
            <use href="#flick-outer" />
        </g>
        <g stroke="black" fill="transparent" stroke-width="4">
            <use href="#flick-center" />
        </g>
        <g fill="white">
            <use href="#flick-center" />
        </g>
        <g stroke="white" fill="transparent" stroke-width="2">
            <use href="#text" />
        </g>
    </mask>

    <rect width="190" height="40" mask="url(#main-mask)" fill="currentColor"/>
</svg>